<svg xmlns="http://www.w3.org/2000/svg" width="540" height="705" viewBox="0 0 360 470" role="img">
<rect width="360" height="470" fill="#FBFAF7"/>
<rect x="80" y="30" width="160" height="360" rx="8" fill="#EBE9E2" stroke="#888780" stroke-width="1.5"/>
<circle cx="96.5" cy="374.0" r="3.4" fill="none" stroke="#5F5E5A" stroke-width="1"/><circle cx="96.5" cy="348.6" r="3.4" fill="none" stroke="#5F5E5A" stroke-width="1"/><circle cx="96.5" cy="323.2" r="3.4" fill="none" stroke="#5F5E5A" stroke-width="1"/><circle cx="96.5" cy="297.8" r="3.4" fill="none" stroke="#5F5E5A" stroke-width="1"/><circle cx="96.5" cy="272.4" r="3.4" fill="none" stroke="#5F5E5A" stroke-width="1"/><circle cx="121.9" cy="374.0" r="3.4" fill="none" stroke="#5F5E5A" stroke-width="1"/><circle cx="121.9" cy="348.6" r="3.4" fill="none" stroke="#5F5E5A" stroke-width="1"/><circle cx="121.9" cy="323.2" r="3.4" fill="none" stroke="#5F5E5A" stroke-width="1"/><circle cx="121.9" cy="297.8" r="3.4" fill="none" stroke="#5F5E5A" stroke-width="1"/><circle cx="121.9" cy="272.4" r="3.4" fill="none" stroke="#5F5E5A" stroke-width="1"/><circle cx="147.3" cy="374.0" r="3.4" fill="none" stroke="#5F5E5A" stroke-width="1"/><circle cx="147.3" cy="348.6" r="3.4" fill="none" stroke="#5F5E5A" stroke-width="1"/><circle cx="147.3" cy="323.2" r="3.4" fill="none" stroke="#5F5E5A" stroke-width="1"/><circle cx="147.3" cy="297.8" r="3.4" fill="none" stroke="#5F5E5A" stroke-width="1"/><circle cx="147.3" cy="272.4" r="3.4" fill="none" stroke="#5F5E5A" stroke-width="1"/><circle cx="172.7" cy="374.0" r="3.4" fill="none" stroke="#5F5E5A" stroke-width="1"/><circle cx="172.7" cy="348.6" r="3.4" fill="none" stroke="#5F5E5A" stroke-width="1"/><circle cx="172.7" cy="323.2" r="3.4" fill="none" stroke="#5F5E5A" stroke-width="1"/><circle cx="172.7" cy="297.8" r="3.4" fill="none" stroke="#5F5E5A" stroke-width="1"/><circle cx="172.7" cy="272.4" r="3.4" fill="none" stroke="#5F5E5A" stroke-width="1"/><circle cx="198.1" cy="374.0" r="3.4" fill="none" stroke="#5F5E5A" stroke-width="1"/><circle cx="198.1" cy="348.6" r="3.4" fill="none" stroke="#5F5E5A" stroke-width="1"/><circle cx="198.1" cy="323.2" r="3.4" fill="none" stroke="#5F5E5A" stroke-width="1"/><circle cx="198.1" cy="297.8" r="3.4" fill="none" stroke="#5F5E5A" stroke-width="1"/><circle cx="198.1" cy="272.4" r="3.4" fill="none" stroke="#5F5E5A" stroke-width="1"/><circle cx="223.5" cy="374.0" r="3.4" fill="none" stroke="#5F5E5A" stroke-width="1"/><circle cx="223.5" cy="348.6" r="3.4" fill="none" stroke="#5F5E5A" stroke-width="1"/><circle cx="223.5" cy="323.2" r="3.4" fill="none" stroke="#5F5E5A" stroke-width="1"/><circle cx="223.5" cy="297.8" r="3.4" fill="none" stroke="#5F5E5A" stroke-width="1"/><circle cx="223.5" cy="272.4" r="3.4" fill="none" stroke="#5F5E5A" stroke-width="1"/><rect x="121.0" y="182.0" width="6" height="16" rx="2" fill="none" stroke="#185FA5" stroke-width="1.2"/><rect x="193.0" y="182.0" width="6" height="16" rx="2" fill="none" stroke="#185FA5" stroke-width="1.2"/><rect x="121.0" y="112.0" width="6" height="16" rx="2" fill="none" stroke="#185FA5" stroke-width="1.2"/><rect x="193.0" y="112.0" width="6" height="16" rx="2" fill="none" stroke="#185FA5" stroke-width="1.2"/><rect x="121.0" y="46.0" width="6" height="16" rx="2" fill="none" stroke="#185FA5" stroke-width="1.2"/><rect x="193.0" y="46.0" width="6" height="16" rx="2" fill="none" stroke="#185FA5" stroke-width="1.2"/>
<rect x="144" y="213" width="32" height="22" rx="3" fill="none" stroke="#B8460F" stroke-width="1.2"/>
<!-- width dim -->
<line x1="80" y1="20" x2="240" y2="20" stroke="#9A988F" stroke-width="0.8" marker-start="url(#a)" marker-end="url(#a)"/>
<text x="160" y="14" text-anchor="middle" font-family="sans-serif" font-size="11" fill="#3A3A37">80 mm</text>
<!-- height dim -->
<line x1="66" y1="30" x2="66" y2="390" stroke="#9A988F" stroke-width="0.8" marker-start="url(#a)" marker-end="url(#a)"/>
<text x="60" y="213" text-anchor="end" font-family="sans-serif" font-size="11" fill="#3A3A37">180 mm</text>
<defs><marker id="a" viewBox="0 0 10 10" refX="5" refY="5" markerWidth="5" markerHeight="5" orient="auto-start-reverse"><path d="M2 1L8 5L2 9" fill="none" stroke="context-stroke" stroke-width="1.5"/></marker></defs>
<!-- labels -->
<text x="250" y="330" font-family="sans-serif" font-size="11" fill="#5F5E5A">M3 hole grid</text>
<text x="250" y="344" font-family="sans-serif" font-size="10" fill="#9A988F">mount brackets here,</text>
<text x="250" y="357" font-family="sans-serif" font-size="10" fill="#9A988F">slide to set wheel height</text>
<text x="250" y="120" font-family="sans-serif" font-size="11" fill="#185FA5">zip-tie strap slots</text>
<text x="250" y="134" font-family="sans-serif" font-size="10" fill="#9A988F">driver / Pico / battery</text>
<text x="250" y="226" font-family="sans-serif" font-size="11" fill="#B8460F">wire pass-through</text>
<text x="160" y="410" text-anchor="middle" font-family="sans-serif" font-size="11" fill="#5F5E5A">6 mm thick PETG  ·  prints flat, no supports</text>
<text x="160" y="430" text-anchor="middle" font-family="sans-serif" font-size="10.5" fill="#9A988F">motors stick out each face → wheels coaxial left &amp; right</text>
</svg>