<svg xmlns="http://www.w3.org/2000/svg" width="860" height="520" viewBox="0 0 860 520" role="img"><rect width="860" height="520" fill="#FBFAF7"/><text x="430" y="26" text-anchor="middle" font-family="sans-serif" font-size="14" font-weight="600" fill="#3A3A37">Phase 1 wiring - balance on the IMU (no encoders yet)</text><rect x="40" y="48" width="120" height="44" rx="6" fill="#EFEEE8" stroke="#888780" stroke-width="1"/><text x="100" y="68" text-anchor="middle" font-family="sans-serif" font-size="11" font-weight="600" fill="#3A3A37">Laptop</text><text x="100" y="82" text-anchor="middle" font-family="sans-serif" font-size="9" font-weight="400" fill="#9A988F">USB: power + flash</text><rect x="80" y="120" width="165" height="275" rx="6" fill="#E4EFEA" stroke="#2E6F57" stroke-width="1"/><text x="162" y="138" text-anchor="middle" font-family="sans-serif" font-size="12" font-weight="600" fill="#2E6F57">Pico 2</text><rect x="380" y="150" width="175" height="225" rx="6" fill="#E4EFEA" stroke="#888780" stroke-width="1"/><text x="467" y="168" text-anchor="middle" font-family="sans-serif" font-size="12" font-weight="600" fill="#3A3A37">TB6612 driver</text><rect x="40" y="436" width="160" height="60" rx="6" fill="#F6E2D6" stroke="#B8460F" stroke-width="1"/><text x="120" y="456" text-anchor="middle" font-family="sans-serif" font-size="11" font-weight="600" fill="#B8460F">12V supply  or  3S LiPo</text><text x="120" y="470" text-anchor="middle" font-family="sans-serif" font-size="9" font-weight="400" fill="#9A988F">into VM screw terminal</text><text x="120" y="484" text-anchor="middle" font-family="sans-serif" font-size="9" font-weight="400" fill="#9A988F">(add switch + LVC buzzer)</text><rect x="660" y="60" width="150" height="62" rx="6" fill="#E4EFEA" stroke="#7A4FB5" stroke-width="1"/><text x="735" y="80" text-anchor="middle" font-family="sans-serif" font-size="11" font-weight="600" fill="#7A4FB5">IMU</text><text x="735" y="96" text-anchor="middle" font-family="sans-serif" font-size="9" font-weight="400" fill="#9A988F">STEMMA QT</text><rect x="660" y="190" width="150" height="58" rx="6" fill="#F6E2D6" stroke="#888780" stroke-width="1"/><text x="735" y="214" text-anchor="middle" font-family="sans-serif" font-size="11" font-weight="600" fill="#3A3A37">Motor L</text><rect x="660" y="285" width="150" height="58" rx="6" fill="#F6E2D6" stroke="#888780" stroke-width="1"/><text x="735" y="309" text-anchor="middle" font-family="sans-serif" font-size="11" font-weight="600" fill="#3A3A37">Motor R</text><text x="238" y="158" text-anchor="end" font-family="sans-serif" font-size="9.5" font-weight="400" fill="#C4633A">3V3</text><text x="238" y="179" text-anchor="end" font-family="sans-serif" font-size="9.5" font-weight="400" fill="#2C2C2A">GND</text><text x="238" y="200" text-anchor="end" font-family="sans-serif" font-size="9.5" font-weight="400" fill="#7A4FB5">GP4  SDA</text><text x="238" y="221" text-anchor="end" font-family="sans-serif" font-size="9.5" font-weight="400" fill="#7A4FB5">GP5  SCL</text><text x="238" y="242" text-anchor="end" font-family="sans-serif" font-size="9.5" font-weight="400" fill="#185FA5">GP16 PWMA</text><text x="238" y="263" text-anchor="end" font-family="sans-serif" font-size="9.5" font-weight="400" fill="#185FA5">GP17 PWMB</text><text x="238" y="284" text-anchor="end" font-family="sans-serif" font-size="9.5" font-weight="400" fill="#185FA5">GP18 AIN1</text><text x="238" y="305" text-anchor="end" font-family="sans-serif" font-size="9.5" font-weight="400" fill="#185FA5">GP19 AIN2</text><text x="238" y="326" text-anchor="end" font-family="sans-serif" font-size="9.5" font-weight="400" fill="#185FA5">GP20 BIN1</text><text x="238" y="347" text-anchor="end" font-family="sans-serif" font-size="9.5" font-weight="400" fill="#185FA5">GP21 BIN2</text><text x="238" y="368" text-anchor="end" font-family="sans-serif" font-size="9.5" font-weight="400" fill="#185FA5">GP22 STBY</text><text x="388" y="172" text-anchor="start" font-family="sans-serif" font-size="9.5" font-weight="400" fill="#C4633A">VCC</text><text x="388" y="193" text-anchor="start" font-family="sans-serif" font-size="9.5" font-weight="400" fill="#2C2C2A">GND</text><text x="388" y="214" text-anchor="start" font-family="sans-serif" font-size="9.5" font-weight="400" fill="#185FA5">PWMA</text><text x="388" y="235" text-anchor="start" font-family="sans-serif" font-size="9.5" font-weight="400" fill="#185FA5">AIN1</text><text x="388" y="256" text-anchor="start" font-family="sans-serif" font-size="9.5" font-weight="400" fill="#185FA5">AIN2</text><text x="388" y="277" text-anchor="start" font-family="sans-serif" font-size="9.5" font-weight="400" fill="#185FA5">STBY</text><text x="388" y="298" text-anchor="start" font-family="sans-serif" font-size="9.5" font-weight="400" fill="#185FA5">BIN1</text><text x="388" y="319" text-anchor="start" font-family="sans-serif" font-size="9.5" font-weight="400" fill="#185FA5">BIN2</text><text x="388" y="340" text-anchor="start" font-family="sans-serif" font-size="9.5" font-weight="400" fill="#185FA5">PWMB</text><text x="547" y="172" text-anchor="end" font-family="sans-serif" font-size="9.5" font-weight="400" fill="#B8460F">VM</text><text x="547" y="193" text-anchor="end" font-family="sans-serif" font-size="9.5" font-weight="400" fill="#2C2C2A">GND</text><text x="547" y="250" text-anchor="end" font-family="sans-serif" font-size="9.5" font-weight="400" fill="#3A3A37">Motor A</text><text x="547" y="310" text-anchor="end" font-family="sans-serif" font-size="9.5" font-weight="400" fill="#3A3A37">Motor B</text><line x1="100" y1="92" x2="150" y2="120" stroke="#9A988F" stroke-width="2"/><line x1="245" y1="166" x2="660" y2="86" stroke="#7A4FB5" stroke-width="1.5"/><line x1="245" y1="160" x2="380" y2="172" stroke="#C4633A" stroke-width="1.5"/><line x1="245" y1="158" x2="660" y2="72" stroke="#C4633A" stroke-width="1.5"/><line x1="245" y1="300" x2="380" y2="260" stroke="#185FA5" stroke-width="1.5"/><line x1="245" y1="320" x2="380" y2="300" stroke="#185FA5" stroke-width="1.5"/><line x1="200" y1="452" x2="575" y2="452" stroke="#B8460F" stroke-width="2.5"/><line x1="575" y1="452" x2="575" y2="172" stroke="#B8460F" stroke-width="2.5"/><line x1="575" y1="172" x2="547" y2="172" stroke="#B8460F" stroke-width="2.5"/><line x1="555" y1="250" x2="660" y2="215" stroke="#2C2C2A" stroke-width="2.5"/><line x1="555" y1="310" x2="660" y2="314" stroke="#2C2C2A" stroke-width="2.5"/><line x1="245" y1="179" x2="330" y2="179" stroke="#2C2C2A" stroke-width="3"/><line x1="330" y1="179" x2="330" y2="470" stroke="#2C2C2A" stroke-width="3"/><line x1="330" y1="470" x2="200" y2="470" stroke="#2C2C2A" stroke-width="3"/><line x1="330" y1="470" x2="575" y2="470" stroke="#2C2C2A" stroke-width="3"/><line x1="575" y1="470" x2="575" y2="193" stroke="#2C2C2A" stroke-width="3"/><line x1="575" y1="193" x2="547" y2="193" stroke="#2C2C2A" stroke-width="3"/><rect x="300" y="392" width="300" height="34" rx="6" fill="#FBEAE2" stroke="#B8460F" stroke-width="1"/><text x="450" y="406" text-anchor="middle" font-family="sans-serif" font-size="10" font-weight="600" fill="#B8460F">⚠ COMMON GROUND - tie ALL grounds together:</text><text x="450" y="419" text-anchor="middle" font-family="sans-serif" font-size="9.5" font-weight="400" fill="#5F5E5A">12V(−) · Pico GND · TB6612 GND · IMU GND</text><line x1="40" y1="502" x2="56" y2="502" stroke="#9A988F" stroke-width="3"/><text x="60" y="505" text-anchor="start" font-family="sans-serif" font-size="9.5" font-weight="400" fill="#5F5E5A">USB</text><line x1="150" y1="502" x2="166" y2="502" stroke="#C4633A" stroke-width="3"/><text x="170" y="505" text-anchor="start" font-family="sans-serif" font-size="9.5" font-weight="400" fill="#5F5E5A">3.3V</text><line x1="260" y1="502" x2="276" y2="502" stroke="#2C2C2A" stroke-width="3"/><text x="280" y="505" text-anchor="start" font-family="sans-serif" font-size="9.5" font-weight="400" fill="#5F5E5A">GROUND</text><line x1="370" y1="502" x2="386" y2="502" stroke="#185FA5" stroke-width="3"/><text x="390" y="505" text-anchor="start" font-family="sans-serif" font-size="9.5" font-weight="400" fill="#5F5E5A">control</text><line x1="480" y1="502" x2="496" y2="502" stroke="#B8460F" stroke-width="3"/><text x="500" y="505" text-anchor="start" font-family="sans-serif" font-size="9.5" font-weight="400" fill="#5F5E5A">12V</text><line x1="590" y1="502" x2="606" y2="502" stroke="#2C2C2A" stroke-width="3"/><text x="610" y="505" text-anchor="start" font-family="sans-serif" font-size="9.5" font-weight="400" fill="#5F5E5A">motor</text><line x1="700" y1="502" x2="716" y2="502" stroke="#7A4FB5" stroke-width="3"/><text x="720" y="505" text-anchor="start" font-family="sans-serif" font-size="9.5" font-weight="400" fill="#5F5E5A">I2C</text></svg>